<svg xmlns="http://www.w3.org/2000/svg" xmlns:xlink="http://www.w3.org/1999/xlink" width="90" zoomAndPan="magnify" viewBox="0 0 67.5 67.499996" height="90" preserveAspectRatio="xMidYMid meet" version="1.0"><defs><g/><clipPath id="cd2b193213"><path d="M 9 10 L 57 10 L 57 59 L 9 59 Z M 9 10 " clip-rule="nonzero"/></clipPath><clipPath id="54a5f9e9f6"><path d="M 33.917969 0.351562 L 60.363281 27.988281 L 25.679688 61.171875 L -0.761719 33.535156 Z M 33.917969 0.351562 " clip-rule="nonzero"/></clipPath><clipPath id="71e992a36f"><path d="M 33.917969 0.351562 L 67.101562 35.03125 L 32.421875 68.214844 L -0.761719 33.535156 Z M 33.917969 0.351562 " clip-rule="nonzero"/></clipPath><clipPath id="a0287a5b8b"><path d="M 44.890625 40.480469 L 47.265625 40.480469 L 47.265625 42.855469 L 44.890625 42.855469 Z M 44.890625 40.480469 " clip-rule="nonzero"/></clipPath><clipPath id="fc712a826e"><path d="M 46.078125 40.480469 C 45.425781 40.480469 44.890625 41.015625 44.890625 41.667969 C 44.890625 42.324219 45.425781 42.855469 46.078125 42.855469 C 46.734375 42.855469 47.265625 42.324219 47.265625 41.667969 C 47.265625 41.015625 46.734375 40.480469 46.078125 40.480469 " clip-rule="nonzero"/></clipPath></defs><g clip-path="url(#cd2b193213)"><g clip-path="url(#54a5f9e9f6)"><g clip-path="url(#71e992a36f)"><path fill="#000000" d="M 44.113281 54.976562 C 42.195312 55.96875 40.132812 56.65625 38.027344 57.074219 C 36.304688 57.402344 34.554688 57.578125 32.804688 57.570312 C 32.570312 57.578125 32.339844 57.554688 32.105469 57.546875 C 31.875 57.535156 31.640625 57.53125 31.40625 57.511719 L 30.363281 57.417969 L 30.019531 57.367188 L 29.324219 57.277344 C 29.09375 57.238281 28.867188 57.195312 28.636719 57.15625 C 28.175781 57.082031 27.722656 56.972656 27.265625 56.875 C 27.203125 56.859375 27.132812 56.84375 27.0625 56.828125 C 26.992188 56.808594 26.917969 56.789062 26.839844 56.769531 C 26.6875 56.726562 26.523438 56.679688 26.347656 56.632812 C 25.996094 56.542969 25.609375 56.40625 25.1875 56.265625 C 25.082031 56.230469 24.972656 56.195312 24.863281 56.15625 C 24.757812 56.113281 24.648438 56.070312 24.535156 56.027344 C 24.308594 55.9375 24.078125 55.847656 23.839844 55.753906 C 23.371094 55.535156 22.863281 55.332031 22.359375 55.058594 C 20.308594 54.042969 18.101562 52.433594 16.226562 50.492188 C 14.371094 48.535156 12.863281 46.261719 11.9375 44.167969 C 11.6875 43.652344 11.503906 43.132812 11.308594 42.660156 C 11.226562 42.414062 11.144531 42.179688 11.066406 41.949219 C 11.027344 41.835938 10.988281 41.722656 10.949219 41.613281 C 10.914062 41.503906 10.886719 41.394531 10.855469 41.289062 C 10.734375 40.859375 10.613281 40.46875 10.539062 40.113281 C 10.5 39.933594 10.460938 39.769531 10.425781 39.613281 C 10.410156 39.535156 10.390625 39.460938 10.375 39.390625 C 10.363281 39.320312 10.351562 39.25 10.339844 39.183594 C 10.019531 37.460938 9.859375 35.710938 9.878906 33.960938 C 9.917969 32.097656 10.1875 30.242188 10.613281 28.425781 C 11.125 26.339844 11.902344 24.3125 12.980469 22.4375 C 14.035156 20.554688 15.398438 18.84375 16.949219 17.332031 C 18.527344 15.847656 20.296875 14.5625 22.226562 13.589844 C 24.144531 12.597656 26.207031 11.910156 28.3125 11.492188 C 30.035156 11.160156 31.785156 10.988281 33.535156 10.996094 C 33.765625 10.988281 34 11.007812 34.234375 11.019531 C 34.464844 11.03125 34.699219 11.035156 34.929688 11.054688 L 35.625 11.117188 L 35.976562 11.148438 L 36.320312 11.195312 L 37.011719 11.289062 C 37.242188 11.324219 37.472656 11.371094 37.703125 11.410156 C 38.164062 11.480469 38.613281 11.59375 39.070312 11.691406 C 39.136719 11.707031 39.207031 11.722656 39.277344 11.738281 C 39.347656 11.757812 39.421875 11.777344 39.496094 11.796875 C 39.652344 11.839844 39.816406 11.882812 39.992188 11.933594 C 40.34375 12.023438 40.726562 12.160156 41.152344 12.300781 C 41.257812 12.335938 41.363281 12.367188 41.472656 12.410156 C 41.582031 12.453125 41.691406 12.496094 41.804688 12.539062 C 42.027344 12.625 42.261719 12.71875 42.5 12.8125 C 42.96875 13.03125 43.476562 13.234375 43.980469 13.507812 C 46.03125 14.523438 48.238281 16.132812 50.109375 18.074219 C 51.964844 20.027344 53.476562 22.304688 54.398438 24.398438 C 54.652344 24.914062 54.832031 25.429688 55.03125 25.90625 C 55.113281 26.152344 55.195312 26.386719 55.273438 26.613281 C 55.3125 26.730469 55.351562 26.839844 55.386719 26.949219 C 55.421875 27.0625 55.453125 27.171875 55.484375 27.277344 C 55.605469 27.707031 55.726562 28.097656 55.796875 28.453125 C 55.839844 28.628906 55.875 28.796875 55.910156 28.953125 C 55.929688 29.027344 55.945312 29.101562 55.960938 29.175781 C 55.976562 29.246094 55.988281 29.316406 56 29.382812 C 56.316406 31.105469 56.480469 32.851562 56.460938 34.601562 C 56.421875 36.46875 56.152344 38.320312 55.722656 40.140625 C 55.210938 42.222656 54.433594 44.253906 53.359375 46.125 C 52.304688 48.011719 50.941406 49.722656 49.386719 51.234375 C 47.808594 52.71875 46.042969 54.003906 44.113281 54.976562 Z M 49.773438 51.613281 L 49.773438 51.609375 C 51.359375 50.066406 52.753906 48.320312 53.832031 46.394531 C 54.933594 44.484375 55.730469 42.40625 56.246094 40.273438 L 56.472656 39.273438 C 56.472656 39.273438 56.523438 38.996094 56.601562 38.578125 C 56.691406 38.164062 56.753906 37.601562 56.835938 37.039062 C 56.882812 36.476562 56.953125 35.914062 56.960938 35.492188 C 56.976562 35.066406 56.988281 34.785156 56.988281 34.785156 C 56.988281 34.785156 56.992188 34.714844 56.992188 34.59375 C 56.992188 34.46875 56.996094 34.292969 56.996094 34.078125 C 57.007812 33.65625 56.972656 33.089844 56.953125 32.527344 C 56.933594 32.246094 56.902344 31.964844 56.878906 31.699219 C 56.867188 31.570312 56.855469 31.441406 56.84375 31.320312 C 56.828125 31.199219 56.8125 31.085938 56.796875 30.980469 C 56.738281 30.5625 56.699219 30.28125 56.699219 30.28125 C 56.699219 30.28125 56.695312 30.21875 56.675781 30.121094 C 56.660156 30.027344 56.636719 29.902344 56.617188 29.777344 C 56.570312 29.523438 56.527344 29.269531 56.527344 29.269531 C 56.515625 29.203125 56.503906 29.132812 56.492188 29.058594 C 56.476562 28.984375 56.457031 28.90625 56.441406 28.828125 C 56.402344 28.671875 56.367188 28.5 56.324219 28.320312 C 56.25 27.953125 56.128906 27.554688 56.003906 27.117188 C 55.972656 27.007812 55.945312 26.894531 55.90625 26.78125 C 55.867188 26.667969 55.828125 26.554688 55.789062 26.4375 C 55.710938 26.203125 55.628906 25.960938 55.542969 25.710938 C 55.34375 25.222656 55.15625 24.695312 54.898438 24.167969 C 53.953125 22.023438 52.410156 19.691406 50.511719 17.691406 C 48.59375 15.703125 46.335938 14.058594 44.230469 13.019531 C 43.71875 12.742188 43.195312 12.53125 42.71875 12.308594 C 42.472656 12.214844 42.234375 12.121094 42.003906 12.03125 C 41.890625 11.984375 41.777344 11.941406 41.667969 11.898438 C 41.554688 11.855469 41.445312 11.824219 41.335938 11.785156 C 40.902344 11.644531 40.507812 11.503906 40.148438 11.414062 C 39.96875 11.363281 39.800781 11.316406 39.644531 11.273438 C 39.566406 11.253906 39.488281 11.234375 39.417969 11.214844 C 39.34375 11.199219 39.273438 11.183594 39.207031 11.167969 C 39.207031 11.167969 38.957031 11.113281 38.707031 11.058594 C 38.582031 11.03125 38.457031 11.003906 38.363281 10.980469 C 38.269531 10.960938 38.203125 10.953125 38.203125 10.953125 C 38.203125 10.953125 37.925781 10.898438 37.507812 10.824219 C 37.40625 10.804688 37.292969 10.78125 37.171875 10.761719 C 37.050781 10.746094 36.925781 10.726562 36.792969 10.710938 C 36.53125 10.675781 36.253906 10.632812 35.972656 10.601562 C 35.410156 10.554688 34.847656 10.496094 34.421875 10.488281 C 34.210938 10.480469 34.035156 10.472656 33.910156 10.46875 C 33.789062 10.464844 33.714844 10.464844 33.714844 10.464844 C 33.714844 10.464844 33.433594 10.460938 33.011719 10.460938 C 32.585938 10.449219 32.023438 10.492188 31.457031 10.515625 C 30.894531 10.574219 30.328125 10.613281 29.910156 10.683594 C 29.492188 10.742188 29.210938 10.785156 29.210938 10.785156 L 28.199219 10.964844 C 26.046875 11.386719 23.9375 12.089844 21.980469 13.105469 C 20.007812 14.097656 18.203125 15.414062 16.589844 16.929688 L 16.566406 16.953125 C 14.980469 18.5 13.585938 20.246094 12.503906 22.171875 C 11.402344 24.082031 10.609375 26.160156 10.09375 28.289062 L 9.867188 29.292969 C 9.867188 29.292969 9.816406 29.570312 9.738281 29.988281 C 9.644531 30.402344 9.585938 30.964844 9.5 31.523438 C 9.453125 32.089844 9.386719 32.648438 9.378906 33.074219 C 9.359375 33.496094 9.347656 33.78125 9.347656 33.78125 C 9.347656 33.78125 9.347656 33.851562 9.347656 33.972656 C 9.34375 34.097656 9.34375 34.273438 9.34375 34.484375 C 9.332031 34.910156 9.363281 35.472656 9.386719 36.039062 C 9.40625 36.320312 9.4375 36.601562 9.460938 36.867188 C 9.472656 36.996094 9.484375 37.125 9.492188 37.246094 C 9.511719 37.367188 9.527344 37.480469 9.542969 37.585938 C 9.597656 38.003906 9.636719 38.285156 9.636719 38.285156 C 9.636719 38.285156 9.644531 38.347656 9.660156 38.441406 C 9.679688 38.539062 9.699219 38.664062 9.722656 38.789062 C 9.765625 39.042969 9.8125 39.296875 9.8125 39.296875 C 9.824219 39.363281 9.835938 39.433594 9.847656 39.507812 C 9.863281 39.582031 9.882812 39.65625 9.898438 39.738281 C 9.933594 39.894531 9.972656 40.066406 10.015625 40.246094 C 10.089844 40.613281 10.210938 41.011719 10.332031 41.449219 C 10.367188 41.558594 10.394531 41.671875 10.433594 41.785156 C 10.46875 41.898438 10.507812 42.011719 10.546875 42.128906 C 10.628906 42.363281 10.710938 42.605469 10.796875 42.855469 C 10.996094 43.339844 11.183594 43.871094 11.441406 44.398438 C 12.386719 46.542969 13.929688 48.875 15.828125 50.875 C 17.746094 52.859375 20.003906 54.507812 22.105469 55.546875 C 22.621094 55.824219 23.140625 56.035156 23.621094 56.257812 C 23.867188 56.351562 24.105469 56.445312 24.332031 56.535156 C 24.449219 56.582031 24.5625 56.625 24.671875 56.667969 C 24.78125 56.710938 24.894531 56.742188 25.003906 56.78125 C 25.4375 56.921875 25.828125 57.0625 26.191406 57.152344 C 26.371094 57.203125 26.539062 57.246094 26.695312 57.289062 C 26.773438 57.3125 26.847656 57.332031 26.921875 57.351562 C 26.996094 57.367188 27.066406 57.382812 27.132812 57.398438 C 27.132812 57.398438 27.382812 57.453125 27.632812 57.507812 C 27.757812 57.535156 27.882812 57.5625 27.976562 57.582031 C 28.070312 57.605469 28.132812 57.613281 28.132812 57.613281 C 28.132812 57.613281 28.414062 57.664062 28.828125 57.742188 C 28.933594 57.761719 29.046875 57.78125 29.164062 57.804688 C 29.285156 57.820312 29.414062 57.839844 29.542969 57.855469 C 29.808594 57.890625 30.085938 57.933594 30.367188 57.964844 C 30.929688 58.011719 31.492188 58.070312 31.917969 58.078125 C 32.128906 58.085938 32.304688 58.089844 32.429688 58.097656 C 32.550781 58.101562 32.621094 58.101562 32.621094 58.101562 C 32.621094 58.101562 32.90625 58.101562 33.328125 58.101562 C 33.753906 58.113281 34.316406 58.070312 34.882812 58.050781 C 35.445312 57.992188 36.007812 57.953125 36.425781 57.882812 C 36.847656 57.820312 37.128906 57.78125 37.128906 57.78125 L 38.136719 57.601562 C 40.292969 57.179688 42.398438 56.476562 44.359375 55.460938 C 46.332031 54.464844 48.136719 53.152344 49.75 51.636719 L 49.75 51.632812 L 49.761719 51.625 L 49.773438 51.613281 " fill-opacity="1" fill-rule="nonzero"/></g></g></g><g fill="#000000" fill-opacity="1"><g transform="translate(30.715485, 58.568857)"><g><path d="M 0.859375 -2.515625 L 1.296875 -0.46875 L 2.25 -2.328125 L 2.78125 -2.265625 L 1.4375 0.1875 L 1.015625 0.140625 L 0.328125 -2.578125 Z M 0.859375 -2.515625 "/></g></g></g><g fill="#000000" fill-opacity="1"><g transform="translate(34.781309, 58.927684)"><g><path d="M 0.265625 0 L 0.21875 -2.59375 L 0.734375 -2.609375 L 0.78125 -0.015625 Z M 0.265625 0 "/></g></g></g><g fill="#000000" fill-opacity="1"><g transform="translate(37.4443, 58.820778)"><g><path d="M -0.09375 -1.3125 C -0.125 -1.46875 -0.125 -1.625 -0.09375 -1.78125 C -0.0625 -1.945312 -0.00390625 -2.097656 0.078125 -2.234375 C 0.160156 -2.378906 0.273438 -2.5 0.421875 -2.59375 C 0.578125 -2.695312 0.753906 -2.765625 0.953125 -2.796875 C 1.191406 -2.835938 1.40625 -2.816406 1.59375 -2.734375 C 1.78125 -2.660156 1.929688 -2.550781 2.046875 -2.40625 L 1.703125 -2.09375 C 1.660156 -2.144531 1.609375 -2.191406 1.546875 -2.234375 C 1.484375 -2.273438 1.425781 -2.304688 1.375 -2.328125 C 1.320312 -2.347656 1.265625 -2.359375 1.203125 -2.359375 C 1.140625 -2.367188 1.078125 -2.367188 1.015625 -2.359375 C 0.890625 -2.335938 0.78125 -2.289062 0.6875 -2.21875 C 0.601562 -2.15625 0.535156 -2.078125 0.484375 -1.984375 C 0.441406 -1.898438 0.410156 -1.800781 0.390625 -1.6875 C 0.378906 -1.582031 0.382812 -1.476562 0.40625 -1.375 C 0.414062 -1.257812 0.445312 -1.15625 0.5 -1.0625 C 0.5625 -0.96875 0.628906 -0.890625 0.703125 -0.828125 C 0.785156 -0.765625 0.878906 -0.710938 0.984375 -0.671875 C 1.085938 -0.640625 1.195312 -0.628906 1.3125 -0.640625 C 1.363281 -0.648438 1.414062 -0.664062 1.46875 -0.6875 C 1.53125 -0.71875 1.582031 -0.753906 1.625 -0.796875 C 1.675781 -0.835938 1.722656 -0.882812 1.765625 -0.9375 C 1.816406 -0.988281 1.851562 -1.050781 1.875 -1.125 L 2.3125 -0.96875 C 2.289062 -0.863281 2.242188 -0.769531 2.171875 -0.6875 C 2.109375 -0.601562 2.03125 -0.523438 1.9375 -0.453125 C 1.851562 -0.390625 1.757812 -0.335938 1.65625 -0.296875 C 1.5625 -0.253906 1.460938 -0.222656 1.359375 -0.203125 C 1.171875 -0.171875 0.992188 -0.179688 0.828125 -0.234375 C 0.660156 -0.285156 0.515625 -0.363281 0.390625 -0.46875 C 0.265625 -0.582031 0.15625 -0.707031 0.0625 -0.84375 C -0.0195312 -0.988281 -0.0703125 -1.144531 -0.09375 -1.3125 Z M -0.09375 -1.3125 "/></g></g></g><g fill="#000000" fill-opacity="1"><g transform="translate(41.514415, 58.003542)"><g><path d="M 1.390625 -2.765625 L 0.59375 -2.484375 L 1.296875 -0.453125 L 0.828125 -0.28125 L 0.125 -2.3125 L -0.65625 -2.046875 L -0.796875 -2.46875 L 1.25 -3.1875 Z M 1.390625 -2.765625 "/></g></g></g><g fill="#000000" fill-opacity="1"><g transform="translate(45.169858, 56.600395)"><g><path d="M 1.203125 -0.65625 C 1.035156 -0.5625 0.867188 -0.507812 0.703125 -0.5 C 0.535156 -0.488281 0.375 -0.507812 0.21875 -0.5625 C 0.0625 -0.613281 -0.0820312 -0.691406 -0.21875 -0.796875 C -0.351562 -0.898438 -0.460938 -1.023438 -0.546875 -1.171875 C -0.628906 -1.328125 -0.679688 -1.488281 -0.703125 -1.65625 C -0.722656 -1.832031 -0.710938 -2 -0.671875 -2.15625 C -0.628906 -2.3125 -0.554688 -2.460938 -0.453125 -2.609375 C -0.359375 -2.753906 -0.226562 -2.875 -0.0625 -2.96875 C 0.09375 -3.0625 0.253906 -3.109375 0.421875 -3.109375 C 0.597656 -3.117188 0.765625 -3.097656 0.921875 -3.046875 C 1.085938 -2.992188 1.234375 -2.910156 1.359375 -2.796875 C 1.484375 -2.679688 1.582031 -2.554688 1.65625 -2.421875 C 1.75 -2.273438 1.804688 -2.113281 1.828125 -1.9375 C 1.847656 -1.769531 1.835938 -1.609375 1.796875 -1.453125 C 1.765625 -1.296875 1.695312 -1.144531 1.59375 -1 C 1.488281 -0.863281 1.359375 -0.75 1.203125 -0.65625 Z M -0.09375 -1.4375 C -0.03125 -1.34375 0.0351562 -1.253906 0.109375 -1.171875 C 0.191406 -1.097656 0.28125 -1.039062 0.375 -1 C 0.46875 -0.96875 0.566406 -0.953125 0.671875 -0.953125 C 0.785156 -0.960938 0.894531 -0.992188 1 -1.046875 C 1.101562 -1.109375 1.179688 -1.179688 1.234375 -1.265625 C 1.296875 -1.359375 1.332031 -1.457031 1.34375 -1.5625 C 1.363281 -1.664062 1.359375 -1.769531 1.328125 -1.875 C 1.304688 -1.988281 1.269531 -2.085938 1.21875 -2.171875 C 1.164062 -2.273438 1.097656 -2.363281 1.015625 -2.4375 C 0.929688 -2.507812 0.84375 -2.5625 0.75 -2.59375 C 0.664062 -2.632812 0.566406 -2.65625 0.453125 -2.65625 C 0.347656 -2.65625 0.242188 -2.625 0.140625 -2.5625 C 0.0351562 -2.507812 -0.0390625 -2.429688 -0.09375 -2.328125 C -0.15625 -2.234375 -0.191406 -2.132812 -0.203125 -2.03125 C -0.222656 -1.9375 -0.222656 -1.835938 -0.203125 -1.734375 C -0.179688 -1.628906 -0.144531 -1.53125 -0.09375 -1.4375 Z M -0.09375 -1.4375 "/></g></g></g><g fill="#000000" fill-opacity="1"><g transform="translate(48.885902, 54.290756)"><g/></g></g><g fill="#000000" fill-opacity="1"><g transform="translate(50.809661, 52.716042)"><g><path d="M -0.109375 -2.640625 C -0.128906 -2.640625 -0.164062 -2.632812 -0.21875 -2.625 C -0.269531 -2.613281 -0.328125 -2.59375 -0.390625 -2.5625 C -0.453125 -2.53125 -0.515625 -2.492188 -0.578125 -2.453125 C -0.648438 -2.410156 -0.710938 -2.363281 -0.765625 -2.3125 C -0.859375 -2.207031 -0.910156 -2.113281 -0.921875 -2.03125 C -0.941406 -1.945312 -0.921875 -1.875 -0.859375 -1.8125 C -0.816406 -1.769531 -0.769531 -1.75 -0.71875 -1.75 C -0.675781 -1.75 -0.628906 -1.753906 -0.578125 -1.765625 C -0.535156 -1.773438 -0.476562 -1.800781 -0.40625 -1.84375 C -0.332031 -1.882812 -0.253906 -1.929688 -0.171875 -1.984375 C -0.0546875 -2.046875 0.046875 -2.097656 0.140625 -2.140625 C 0.242188 -2.191406 0.335938 -2.222656 0.421875 -2.234375 C 0.515625 -2.242188 0.601562 -2.234375 0.6875 -2.203125 C 0.78125 -2.171875 0.867188 -2.117188 0.953125 -2.046875 C 1.054688 -1.941406 1.125 -1.832031 1.15625 -1.71875 C 1.1875 -1.613281 1.191406 -1.507812 1.171875 -1.40625 C 1.148438 -1.3125 1.109375 -1.210938 1.046875 -1.109375 C 0.992188 -1.003906 0.921875 -0.910156 0.828125 -0.828125 C 0.691406 -0.679688 0.539062 -0.554688 0.375 -0.453125 C 0.207031 -0.359375 0.0234375 -0.300781 -0.171875 -0.28125 L -0.328125 -0.75 C -0.285156 -0.738281 -0.234375 -0.742188 -0.171875 -0.765625 C -0.109375 -0.785156 -0.0351562 -0.804688 0.046875 -0.828125 C 0.128906 -0.859375 0.210938 -0.898438 0.296875 -0.953125 C 0.378906 -1.003906 0.453125 -1.066406 0.515625 -1.140625 C 0.710938 -1.335938 0.75 -1.5 0.625 -1.625 C 0.570312 -1.664062 0.519531 -1.6875 0.46875 -1.6875 C 0.425781 -1.695312 0.375 -1.691406 0.3125 -1.671875 C 0.25 -1.648438 0.179688 -1.613281 0.109375 -1.5625 C 0.0351562 -1.519531 -0.046875 -1.472656 -0.140625 -1.421875 C -0.242188 -1.359375 -0.34375 -1.304688 -0.4375 -1.265625 C -0.539062 -1.234375 -0.628906 -1.210938 -0.703125 -1.203125 C -0.785156 -1.203125 -0.863281 -1.21875 -0.9375 -1.25 C -1.019531 -1.28125 -1.09375 -1.328125 -1.15625 -1.390625 C -1.257812 -1.492188 -1.328125 -1.59375 -1.359375 -1.6875 C -1.390625 -1.789062 -1.398438 -1.898438 -1.390625 -2.015625 C -1.378906 -2.128906 -1.34375 -2.238281 -1.28125 -2.34375 C -1.226562 -2.445312 -1.15625 -2.546875 -1.0625 -2.640625 C -0.9375 -2.765625 -0.800781 -2.863281 -0.65625 -2.9375 C -0.507812 -3.007812 -0.367188 -3.0625 -0.234375 -3.09375 Z M -0.109375 -2.640625 "/></g></g></g><g fill="#000000" fill-opacity="1"><g transform="translate(53.420789, 49.849989)"><g><path d="M 0.828125 -1.953125 L 1.1875 -1.703125 L 0.15625 -0.21875 L -1.96875 -1.703125 L -0.953125 -3.15625 L -0.59375 -2.90625 L -1.3125 -1.875 L -0.796875 -1.515625 L -0.171875 -2.40625 L 0.15625 -2.171875 L -0.46875 -1.28125 L 0.09375 -0.890625 Z M 0.828125 -1.953125 "/></g></g></g><g fill="#000000" fill-opacity="1"><g transform="translate(55.511178, 46.627522)"><g><path d="M -1.140625 -0.65625 C -1.285156 -0.71875 -1.414062 -0.804688 -1.53125 -0.921875 C -1.644531 -1.046875 -1.734375 -1.179688 -1.796875 -1.328125 C -1.867188 -1.484375 -1.898438 -1.648438 -1.890625 -1.828125 C -1.890625 -2.003906 -1.847656 -2.1875 -1.765625 -2.375 C -1.671875 -2.582031 -1.535156 -2.742188 -1.359375 -2.859375 C -1.191406 -2.972656 -1.019531 -3.035156 -0.84375 -3.046875 L -0.75 -2.578125 C -0.84375 -2.578125 -0.921875 -2.5625 -0.984375 -2.53125 C -1.046875 -2.507812 -1.097656 -2.484375 -1.140625 -2.453125 C -1.191406 -2.421875 -1.238281 -2.378906 -1.28125 -2.328125 C -1.320312 -2.273438 -1.359375 -2.222656 -1.390625 -2.171875 C -1.441406 -2.054688 -1.460938 -1.945312 -1.453125 -1.84375 C -1.441406 -1.738281 -1.410156 -1.640625 -1.359375 -1.546875 C -1.316406 -1.453125 -1.253906 -1.363281 -1.171875 -1.28125 C -1.085938 -1.207031 -1 -1.148438 -0.90625 -1.109375 C -0.800781 -1.054688 -0.691406 -1.023438 -0.578125 -1.015625 C -0.472656 -1.015625 -0.375 -1.023438 -0.28125 -1.046875 C -0.1875 -1.078125 -0.09375 -1.125 0 -1.1875 C 0.09375 -1.25 0.164062 -1.332031 0.21875 -1.4375 C 0.238281 -1.476562 0.253906 -1.53125 0.265625 -1.59375 C 0.273438 -1.664062 0.273438 -1.734375 0.265625 -1.796875 C 0.265625 -1.859375 0.25 -1.921875 0.21875 -1.984375 C 0.195312 -2.054688 0.164062 -2.125 0.125 -2.1875 L 0.5 -2.453125 C 0.570312 -2.378906 0.625 -2.289062 0.65625 -2.1875 C 0.6875 -2.082031 0.703125 -1.976562 0.703125 -1.875 C 0.710938 -1.769531 0.707031 -1.660156 0.6875 -1.546875 C 0.675781 -1.441406 0.644531 -1.34375 0.59375 -1.25 C 0.519531 -1.070312 0.410156 -0.925781 0.265625 -0.8125 C 0.128906 -0.707031 -0.015625 -0.628906 -0.171875 -0.578125 C -0.328125 -0.535156 -0.488281 -0.519531 -0.65625 -0.53125 C -0.832031 -0.539062 -0.992188 -0.582031 -1.140625 -0.65625 Z M -1.140625 -0.65625 "/></g></g></g><g fill="#000000" fill-opacity="1"><g transform="translate(57.135128, 42.801968)"><g><path d="M 0.0625 -0.25 L -2.4375 -0.921875 L -2.140625 -2.046875 C -2.109375 -2.160156 -2.054688 -2.257812 -1.984375 -2.34375 C -1.921875 -2.425781 -1.835938 -2.488281 -1.734375 -2.53125 C -1.628906 -2.582031 -1.519531 -2.613281 -1.40625 -2.625 C -1.300781 -2.644531 -1.195312 -2.644531 -1.09375 -2.625 C -0.9375 -2.570312 -0.800781 -2.488281 -0.6875 -2.375 C -0.570312 -2.269531 -0.503906 -2.132812 -0.484375 -1.96875 L 0.609375 -2.296875 L 0.46875 -1.734375 L -0.515625 -1.4375 L -0.640625 -0.96875 L 0.203125 -0.75 Z M -1.0625 -1.09375 L -0.90625 -1.703125 C -0.894531 -1.753906 -0.894531 -1.800781 -0.90625 -1.84375 C -0.914062 -1.882812 -0.929688 -1.921875 -0.953125 -1.953125 C -0.984375 -1.984375 -1.019531 -2.015625 -1.0625 -2.046875 C -1.101562 -2.078125 -1.15625 -2.101562 -1.21875 -2.125 C -1.28125 -2.132812 -1.335938 -2.132812 -1.390625 -2.125 C -1.453125 -2.125 -1.503906 -2.113281 -1.546875 -2.09375 C -1.585938 -2.082031 -1.625 -2.054688 -1.65625 -2.015625 C -1.6875 -1.984375 -1.707031 -1.945312 -1.71875 -1.90625 L -1.875 -1.3125 Z M -1.0625 -1.09375 "/></g></g></g><g fill="#000000" fill-opacity="1"><g transform="translate(58.03896, 38.832438)"><g><path d="M -0.25 -2.109375 L 0.1875 -2.0625 L 0.03125 -0.265625 L -2.546875 -0.5 L -2.390625 -2.265625 L -1.953125 -2.234375 L -2.0625 -0.984375 L -1.453125 -0.921875 L -1.359375 -2.015625 L -0.953125 -1.984375 L -1.046875 -0.890625 L -0.359375 -0.828125 Z M -0.25 -2.109375 "/></g></g></g><g fill="#000000" fill-opacity="1"><g transform="translate(58.252662, 35.003885)"><g><path d="M -2.328125 -2.0625 L -2.265625 -1.21875 L -0.109375 -1.375 L -0.0625 -0.875 L -2.21875 -0.71875 L -2.15625 0.109375 L -2.59375 0.140625 L -2.765625 -2.03125 Z M -2.328125 -2.0625 "/></g></g></g><g fill="#c8003e" fill-opacity="1"><g transform="translate(18.941382, 43.244997)"><g><path d="M 11.113281 -16.054688 C 11.113281 -11.035156 10.082031 -4.816406 7.265625 -1.507812 C 6.480469 -2.585938 5.894531 -4.554688 5.496094 -5.863281 C 4.480469 -9.15625 3.710938 -12.605469 3.308594 -16.160156 C 3.292969 -16.390625 2.878906 -16.484375 2.324219 -16.484375 C 1.648438 -16.484375 0.863281 -16.207031 0.863281 -15.824219 C 1.214844 -12.542969 1.878906 -9.234375 2.894531 -6.003906 C 3.324219 -4.617188 5.15625 0.015625 6.910156 0.015625 C 9.417969 0.015625 11.207031 -3.925781 12.035156 -6.339844 C 13.144531 -9.574219 13.574219 -12.898438 13.574219 -16.191406 C 13.574219 -16.53125 13.082031 -16.636719 12.511719 -16.636719 C 11.867188 -16.636719 11.113281 -16.390625 11.113281 -16.054688 Z M 11.113281 -16.054688 "/></g></g></g><g fill="#c8003e" fill-opacity="1"><g transform="translate(31.667651, 43.244997)"><g><path d="M 12.34375 -11.789062 C 12.714844 -14.929688 10.390625 -16.714844 7.511719 -16.714844 C 4.601562 -16.714844 1.769531 -15.113281 1.769531 -12.542969 C 1.769531 -10.34375 4.1875 -9.28125 5.847656 -8.574219 C 7.941406 -7.605469 10.203125 -6.265625 10.203125 -3.664062 C 10.203125 -2.015625 8.988281 -0.632812 7.28125 -0.632812 C 5.078125 -0.632812 3.832031 -2.078125 3.832031 -4.203125 C 3.832031 -5.371094 4.570312 -5.773438 3.078125 -5.773438 C 1.539062 -5.773438 1.371094 -5.25 1.371094 -3.847656 C 1.371094 -0.816406 4.417969 0.214844 6.957031 0.214844 C 9.605469 0.214844 12.699219 -1.476562 12.699219 -3.988281 C 12.699219 -7.140625 8.375 -8.773438 6.234375 -9.882812 L 6.25 -9.882812 C 4.972656 -10.574219 4.234375 -11.40625 4.234375 -12.867188 C 4.234375 -14.667969 5.480469 -15.867188 7.035156 -15.867188 C 9.050781 -15.867188 10.035156 -13.683594 9.882812 -11.621094 C 9.882812 -11.375 10.296875 -11.28125 10.851562 -11.28125 C 11.46875 -11.28125 12.3125 -11.511719 12.34375 -11.789062 Z M 12.34375 -11.789062 "/></g></g></g><g clip-path="url(#a0287a5b8b)"><g clip-path="url(#fc712a826e)"><path fill="#c8003e" d="M 44.890625 40.480469 L 47.265625 40.480469 L 47.265625 42.855469 L 44.890625 42.855469 Z M 44.890625 40.480469 " fill-opacity="1" fill-rule="nonzero"/></g></g></svg>